<svg xmlns="http://www.w3.org/2000/svg" height="48" viewBox="0 -960 960 960" width="48"><path d="M479.902-113.283q-153.881 0-260.25-106.425T113.283-480.014q0-153.881 106.421-260.912Q326.125-847.957 480-847.957q5.186 0 13.093.5t23.19 1.5Q485-812.239 468.478-766.696q-16.521 45.544-16.521 92.305 0 93.056 65.259 157.865 65.259 64.809 158.175 64.809 48.413 0 91.848-14.142 43.435-14.141 79.196-44.945-.239 10.472.641 18.188.881 7.715.881 12.356 0 153.836-107.337 260.407-107.338 106.57-260.718 106.57Zm.098-77.304q98.37 0 174.456-59.467 76.087-59.468 97.848-141.598-19 8-41.786 12.261-22.786 4.261-43.453 4.021-119.798-3.108-204.073-86.53-84.275-83.421-87.622-204.122-.24-18.123 3.141-39.583 3.38-21.46 14.141-49.699-88.891 30-145.478 106.587T190.587-480q0 121.292 84.06 205.353 84.061 84.06 205.353 84.06Zm-8.435-281.978Z"/></svg>