<svg xmlns="http://www.w3.org/2000/svg" height="48" viewBox="0 -960 960 960" width="48"><path d="M479.853-347.37q55.299 0 94.408-38.592 39.108-38.592 39.108-93.891 0-55.299-38.814-94.408-38.815-39.108-94.261-39.108t-94.185 38.814q-38.739 38.815-38.739 94.261t38.592 94.185q38.592 38.739 93.891 38.739Zm.234 65.87q-82.587 0-140.587-58.06-58-58.06-58-140.5t58.06-140.69Q397.62-679 480.06-679t140.69 58.163Q679-562.673 679-480.087q0 82.587-58.163 140.587-58.164 58-140.75 58ZM70-447.435q-13.924 0-23.245-9.371-9.32-9.371-9.32-23.369 0-13.999 9.32-23.445 9.321-9.445 23.245-9.445h100q13.924 0 23.495 9.621 9.57 9.621 9.57 23.619 0 13.999-9.57 23.195-9.571 9.195-23.495 9.195H70Zm720 0q-13.924 0-23.245-9.371-9.32-9.371-9.32-23.369 0-13.999 9.32-23.445 9.321-9.445 23.245-9.445h100q13.924 0 23.495 9.621 9.57 9.621 9.57 23.619 0 13.999-9.57 23.195-9.571 9.195-23.495 9.195H790Zm-310.175-310q-13.999 0-23.195-9.32-9.195-9.321-9.195-23.245v-100q0-13.924 9.371-23.495 9.371-9.57 23.369-9.57 13.999 0 23.445 9.57 9.445 9.571 9.445 23.495v100q0 13.924-9.621 23.245-9.621 9.32-23.619 9.32Zm0 720q-13.999 0-23.195-9.32-9.195-9.321-9.195-23.245v-100q0-13.924 9.371-23.495 9.371-9.57 23.369-9.57 13.999 0 23.445 9.57 9.445 9.571 9.445 23.495v100q0 13.924-9.621 23.245-9.621 9.32-23.619 9.32ZM238.13-675.89l-57-56q-10.195-9.696-9.825-23.473.371-13.778 9.961-23.609 9.353-9.592 23.011-9.842t23.593 9.445l56.239 57q9.195 10.049 9.195 23.194 0 13.144-9.195 22.693-9.435 9.548-22.859 9.787-13.424.24-23.12-9.195Zm494 494.761-56.239-57q-9.195-9.696-9.195-23.125 0-13.43 9.695-23.115 9.196-9.695 22.473-9.445t23.506 9.945l57 55.761q9.695 9.696 9.325 23.473-.371 13.778-9.961 23.609-9.353 9.592-23.011 9.842t-23.593-9.945Zm-56.147-494.761q-10.048-9.696-9.798-22.973t9.945-23.506l55.761-57q9.696-9.695 23.473-9.325 13.778.371 23.609 9.961 9.592 9.353 9.842 23.011t-9.445 23.593l-57 56.239q-9.049 9.195-22.557 9.195t-23.83-9.195ZM181.027-181.009q-9.592-9.619-9.842-23.272-.25-13.654 9.945-23.589l57-56.239q9.496-9.695 22.65-9.945 13.155-.25 23.198 9.945 10.087 9.696 9.837 22.989-.25 13.294-9.945 22.99l-55.761 57q-9.696 10.195-23.473 9.825-13.778-.371-23.609-9.704ZM480-480Z"/></svg>